# xmcd
#
# Track frame offsets: 
#        150
#        18337
#        48885
#        97250
#        121862
#        151587
#
# Disc length: 2405 seconds
#
# Revision: 3
# Processed by: cddbd v1.5.2PL0 Copyright (c) Steve Scherf et al.
# Submitted via: ExactAudioCopy v0.99pb5
#
DISCID=3c096306
DTITLE=Andy Narell - The Hammer
DYEAR=1987
DGENRE=Windham Hill
TTITLE0=Hannibal's Revenge
TTITLE1=Chocolate Fog
TTITLE2=Jour Ouvert (Joo-vay)
TTITLE3=The Hammer
TTITLE4=Brontosaurus Ballet
TTITLE5=Workout
EXTD=YEAR: 1987
EXTT0=
EXTT1=
EXTT2=
EXTT3=
EXTT4=
EXTT5=
PLAYORDER=
